<?xml version="1.0" encoding="utf-8"?>
<!-- Generator: Adobe Illustrator 22.0.0, SVG Export Plug-In . SVG Version: 6.00 Build 0)  -->
<svg version="1.1" id="Capa_1" xmlns="http://www.w3.org/2000/svg" xmlns:xlink="http://www.w3.org/1999/xlink" x="0px" y="0px"
	 viewBox="0 0 526 376.5" style="enable-background:new 0 0 526 376.5;" xml:space="preserve">
<style type="text/css">
	.st0{display:none;fill:#149fff;}
	.st1{font-family:'Montserrat-Regular';}
	.st2{font-size:58.146px;}
	.st3{display:none;}
	.st4{display:inline;fill:#ec2f4b;}
	.st5{fill:#ec2f4b;}
	.st6{fill:#FFFFFF;}
	.st7{fill:#149fff;}
</style>
<text transform="matrix(1 0 0 1 60.6167 309.8203)" class="st0 st1 st2">swingRU</text>
<text transform="matrix(1 0 0 1 327.9121 309.8203)" class="st3"><tspan x="0" y="0" class="st4 st1 st2">.</tspan><tspan x="12.3" y="0" class="st4 st1 st2">c</tspan><tspan x="44.5" y="0" class="st4 st1 st2">om</tspan></text>
<path class="st5" d="M305.1,144.8c0.3,0.1,0.6,0.2,0.9,0.3c0.6,0.2,1.1,0.4,1.7,0.6c0.3,0.1,0.6,0.3,1,0.4c0.5,0.2,1.1,0.5,1.6,0.7
	c0.3,0.1,0.6,0.3,0.9,0.4c0.6,0.3,1.3,0.6,1.9,0.9c0.2,0.1,0.4,0.2,0.5,0.3c0.8,0.4,1.6,0.9,2.4,1.3c0.2,0.1,0.4,0.2,0.6,0.4
	c0.6,0.4,1.2,0.7,1.7,1.1c0.3,0.2,0.5,0.4,0.8,0.5c0.3,0.2,0.6,0.4,0.9,0.6c5.4-4.3,11.8-7,18.7-8c18.5-2.5,36.3,8.9,41.3,26.5
	c0.5,1.6,0.8,3.4,1.1,5.1c0.7,5.1,0.3,10.2-1.1,15.1c-3.3,11.3-12,20.6-23.2,24.7c-2.6,1-5.3,1.6-8.1,2c-2.1,0.3-4.3,0.4-6.4,0.3
	l0,0l-1.3-0.1c-1.3-0.1-2.6-0.2-3.8-0.5c-3.7-0.6-7.3-1.8-10.6-3.5c0,0,0,0,0,0c-1.4-0.7-2.7-1.4-3.9-2.3c-1.3-0.8-2.5-1.7-3.6-2.7
	l-0.8-0.6l0,0c-6.5-5.8-10.7-13.7-11.8-22.3c-0.6-4.3-0.4-8.6,0.5-12.7c-0.3-0.2-0.5-0.4-0.8-0.6c-0.3-0.2-0.5-0.4-0.8-0.6
	c-0.4-0.3-0.9-0.6-1.3-0.9c-0.2-0.2-0.5-0.3-0.7-0.5c-0.6-0.4-1.1-0.7-1.7-1c-0.1-0.1-0.3-0.2-0.4-0.2c-0.7-0.4-1.5-0.7-2.2-1.1
	c-0.2-0.1-0.4-0.2-0.7-0.3c-0.5-0.2-1.1-0.4-1.6-0.6c-0.3-0.1-0.6-0.2-0.9-0.3c-0.5-0.2-1-0.3-1.4-0.5c-0.3-0.1-0.6-0.2-1-0.3
	c-0.5-0.1-0.9-0.2-1.4-0.3c-0.3-0.1-0.7-0.1-1-0.2c-0.2,0-0.5-0.1-0.7-0.1c-1.4,4.9-2.1,10-2.1,15.1c0,17.5,8,33.5,21.9,44
	c4.4,3.3,9.1,5.9,14.2,7.8c1.2,0.5,2.5,0.9,3.8,1.2c0.9,0.3,1.9,0.5,2.8,0.7c4.1,1,8.3,1.4,12.5,1.4c17.7,0,34.4-8.6,44.8-22.9
	c5-6.9,8.2-14.6,9.6-22.9l0.2-1.4h18.8v23.6H435v-23.6h20.4v-16H435v-25.7h-18.2v25.7H398l-0.2-1.4c-1.6-9.1-5.4-17.8-11.2-25
	c-10.5-13.2-26.3-20.8-43.2-20.8c-15.7,0-30.5,6.6-41,18.2c0,0,0.1,0,0.1,0c0.2,0.1,0.5,0.1,0.7,0.2
	C303.9,144.4,304.5,144.6,305.1,144.8"/>
<path class="st6" d="M326.4,214c3.3,1.7,6.9,2.8,10.6,3.5C333.4,216.9,329.8,215.7,326.4,214"/>
<path class="st5" d="M216.6,207.7l-0.2,0c-7.6-1.8-14.3-5.8-19.5-11.8l-1-1.1l0,0c-4.4-5.4-7.2-11.9-8.2-18.9
	c-1.5-10.8,1.7-21.5,8.6-29.7c-0.2-0.2-0.3-0.3-0.5-0.5c-0.2-0.2-0.5-0.5-0.7-0.7c-0.4-0.3-0.7-0.7-1.1-1c-0.2-0.2-0.5-0.4-0.8-0.6
	c-0.4-0.3-0.8-0.6-1.2-0.9c-0.2-0.2-0.5-0.4-0.7-0.5c-0.5-0.3-1-0.6-1.5-0.9c-0.2-0.1-0.4-0.2-0.6-0.4c-0.7-0.4-1.4-0.8-2.1-1.2
	c-0.1-0.1-0.3-0.1-0.4-0.2c-0.6-0.3-1.2-0.6-1.8-0.8c-0.3-0.1-0.5-0.2-0.8-0.3c-0.5-0.2-1-0.4-1.5-0.5c-0.3-0.1-0.6-0.2-0.9-0.3
	c-0.3-0.1-0.6-0.2-0.9-0.2c-7.6,9.7-11.8,21.8-11.8,34.1c0,12.1,3.8,23.6,11.1,33.2c2.3,3.1,5,6,8,8.5c1,0.9,2,1.7,3,2.5
	c2.5,1.9,5.1,3.5,7.9,5c7.8,4,16.3,6.1,25.2,6.1c3.2,0,6.4-0.3,9.5-0.8c0-0.1-0.1-0.2-0.1-0.3c-0.1-0.3-0.2-0.5-0.4-0.8
	c-0.2-0.5-0.5-1-0.7-1.5c-0.1-0.3-0.2-0.6-0.4-0.9c-0.2-0.5-0.4-1-0.6-1.5c-0.1-0.3-0.2-0.6-0.3-0.9c-0.2-0.6-0.4-1.2-0.6-1.8
	c-0.1-0.2-0.1-0.4-0.2-0.6c-0.2-0.8-0.5-1.6-0.7-2.4c-0.1-0.2-0.1-0.4-0.1-0.6c-0.2-0.6-0.3-1.2-0.4-1.9c-0.1-0.3-0.1-0.6-0.2-0.9
	c-0.1-0.5-0.2-1.1-0.3-1.6c-0.1-0.3-0.1-0.6-0.2-0.9c0-0.2-0.1-0.4-0.1-0.6C224.6,208.9,220.6,208.6,216.6,207.7"/>
<path class="st7" d="M253.4,220.1c-1-1.5-1.9-3.1-2.6-4.7c-0.3-0.5-0.5-1.1-0.7-1.6c-0.7-1.7-1.2-3.4-1.6-5.1
	c-0.3-1.2-0.5-2.4-0.7-3.6c-0.3-1.8-0.4-3.6-0.4-5.4c0-1,0-2,0.1-2.9l0-0.6l0,0c0.8-8.6,4.5-16.6,10.6-22.8c0-0.2,0-0.5,0-0.7
	c0-0.3,0-0.5,0-0.8c0-0.4,0-0.7,0-1.1c0-0.2,0-0.5,0-0.7c0-0.4,0-0.8-0.1-1.2c0-0.2,0-0.4,0-0.6c-0.1-0.6-0.1-1.2-0.2-1.8
	c-0.3-2.5-1-5-1.8-7.4c-0.3-0.8-0.6-1.6-1-2.4c-0.1-0.2-0.2-0.4-0.3-0.6c-0.1-0.2-0.2-0.4-0.3-0.7c-14.5,10.4-23.1,27-23.1,44.9
	c0,2.1,0.1,4.2,0.3,6.2c0.7,6,2.3,11.9,4.9,17.3c0.4,0.8,0.8,1.6,1.2,2.3c3.6,6.8,8.5,12.6,14.5,17.4l1.1,0.9l-7.5,13.3l-14.5-9.4
	v50.1l37.7-25.7l-10.5-6.8l8.8-13.8l1.2,0.4c5.8,2,11.8,3,18,3c3.2,0,6.3-0.3,9.2-0.8c12.2-2.1,23.4-8.2,31.7-17.4
	c-6.6-1.8-12.7-4.8-18.3-8.9c-6.8,5.7-15.3,8.9-24.3,8.9c-12.2,0-23.5-5.9-30.6-15.8l0,0L253.4,220.1z"/>
<path class="st7" d="M289.3,162.4c6.7,0.8,12.9,3.3,18.2,7.3c0.8,0.6,1.5,1.2,2.2,1.8c8.1,7.1,12.7,17.4,12.7,28.2
	c0,2.5-0.3,5-0.8,7.5c5.2,4.2,11.5,6.8,18.1,7.5c1.3-4.7,1.9-9.5,1.9-14.4c0-17.5-8.4-34.2-22.6-44.5c-6-4.4-12.8-7.6-20.1-9.2
	c-7.1-1.7-14.7-1.9-22.1-0.6c0,0.1,0.1,0.1,0.1,0.2c0.1,0.2,0.2,0.5,0.3,0.7c0.2,0.5,0.5,1,0.7,1.5c0.1,0.3,0.2,0.6,0.3,0.8
	c0.2,0.5,0.4,1,0.6,1.5c0.1,0.3,0.2,0.6,0.3,0.8c0.2,0.5,0.4,1.1,0.6,1.6c0.1,0.2,0.2,0.4,0.2,0.7c0.2,0.8,0.5,1.5,0.7,2.3
	c0,0.2,0.1,0.3,0.1,0.5c0.2,0.6,0.3,1.2,0.5,1.9c0.1,0.3,0.1,0.5,0.2,0.8c0.1,0.5,0.2,1.1,0.3,1.6c0.1,0.3,0.1,0.6,0.2,0.9
	c0,0.2,0.1,0.4,0.1,0.6C284.5,162,286.8,162.1,289.3,162.4"/>
<path class="st7" d="M226.7,171.2c0.1,12-3.5,23.5-10.6,33.1c-6-1.6-11.5-4.8-15.8-9.4c6.1-7,9.3-15.8,9.2-25.1
	c-0.1-9.2-3.6-18-9.7-24.8c-0.6-0.7-1.3-1.4-2-2c-4.8-4.6-10.6-7.8-17.1-9.3c-3-0.7-6-1.1-9.2-1c-20.7,0.2-37.3,17.3-37.1,38
	c0.1,10,4.1,19.4,11.3,26.4c7.2,7,16.7,10.8,26.7,10.7c1.9,0,3.9-0.2,5.8-0.5c4.6,5.8,10.3,10.8,16.7,14.6
	c-7.1,3.3-14.9,5.1-22.8,5.2c-27.1,0.3-50.2-18.7-54.9-45.3c-0.6-3-0.8-6.1-0.9-9.2c-0.1-6.1,0.9-12.2,2.8-18l0.4-1.2l-13.9-8.7
	l-6.7,10.6l-26.1-37.4l50.1-0.6l-9.2,14.6l13.4,7.3l0.8-1.1c10.4-13.4,26.1-21.2,43-21.4c9-0.1,17.9,2,25.8,6.1
	c0.8,0.4,1.7,0.9,2.5,1.4c0.9,0.5,1.9,1.1,2.8,1.7c2.3,1.5,4.5,3.3,6.6,5.1c0.5,0.5,1,0.9,1.5,1.4c1.5,1.5,2.9,3,4.2,4.6v0
	C222.2,146.7,226.5,158.5,226.7,171.2"/>
<path class="st5" d="M216.1,134.1c1.1-0.2,2.2-0.4,3.3-0.6c5.1-0.7,10.2-0.3,15.1,1.1c9.2,2.7,17.2,9,22,17.5c1,1.8,1.9,3.8,2.7,5.8
	c1,2.6,1.6,5.3,2,8.1c0.4,2.7,0.5,5.5,0.2,8.2c-0.7,8.9-4.5,17.2-10.7,23.5c0,0.6-0.1,1.3-0.1,2c0,6.1,1.6,12.1,4.7,17.3
	c15.2-10.3,24.2-27.3,24.2-45.7c0-2.3-0.2-4.7-0.4-7.1c-0.7-5.8-2.4-11.3-4.8-16.6c-0.4-0.7-0.7-1.5-1.1-2.2
	c-4-7.5-9.7-14-16.5-18.9c-6.9-5-14.6-8.2-22.9-9.6l-1.4-0.2V97.8h23.6V79.6h-23.6V59.2h-16v20.4h-25.7v18.2h25.7v18.8l-1.4,0.2
	c-4.9,0.8-9.6,2.3-14.1,4.4C206.6,124.6,211.8,129,216.1,134.1"/>
</svg>
